<?xml version="1.0" encoding="UTF-8"?>
<!DOCTYPE svg PUBLIC "-//W3C//DTD SVG 1.1//EN" "http://www.w3.org/Graphics/SVG/1.1/DTD/svg11.dtd">
<!-- Creator: CorelDRAW -->
<svg xmlns="http://www.w3.org/2000/svg" xml:space="preserve" width="6.82666in" height="6.82666in" style="shape-rendering:geometricPrecision; text-rendering:geometricPrecision; image-rendering:optimizeQuality; fill-rule:evenodd; clip-rule:evenodd"
viewBox="0 0 6.82666 6.82666"
 xmlns:xlink="http://www.w3.org/1999/xlink">
 <defs>
  <style type="text/css">
   <![CDATA[
    .fil2 {fill:none}
    .fil0 {fill:#424242}
    .fil1 {fill:#FFFFFE;fill-rule:nonzero}
   ]]>
  </style>
 </defs>
 <rect class="fil0" width="6.82666" height="6.82666"/>
 <g id="Layer_x0020_1">
  <metadata id="CorelCorpID_0Corel-Layer"/>
  <path class="fil1" d="M5.46821 2.78322c-0.11998,0.235465 0.0450276,0.828425 0.206638,1.41248 0.123189,0.445209 0.245098,0.885768 0.245098,1.19398 0,0.610051 -0.627181,0.690315 -1.52735,0.690315 -0.114402,0 -0.280736,-0.0022126 -0.453339,-0.00450394 -0.154689,-0.00205118 -0.315618,-0.00419685 -0.525921,-0.00419685 -0.210307,0 -0.371228,0.00214173 -0.525917,0.00419685 -0.172606,0.00229528 -0.338772,0.00450394 -0.453339,0.00450394 -0.900173,0 -1.52736,-0.0802717 -1.52736,-0.690315 0,-0.310543 0.0986654,-0.716283 0.200858,-1.13655 0.133701,-0.54985 0.570839,-1.59792 0.184189,-1.51988l-0.000429134 8.66142e-005c-0.0576693,0.0116378 0.0369173,-0.0925079 0.0946535,-0.10385 0.00757087,-0.00148819 0.015126,-0.00206299 0.0225591,-0.00206299l3.96746 0c0.0589094,0 0.106669,0.0464094 0.106669,0.103657 0,0.0190079 -0.00637008,0.036252 -0.0144646,0.0521339zm-2.53026 0.564169c-0.0115236,-0.057748 -0.0676614,-0.095252 -0.125417,-0.083748 -0.0577559,0.0115039 -0.0952795,0.0676732 -0.083748,0.125417 0.0150748,0.0754843 0.143787,0.341484 0.0743661,0.301984 -0.207394,-0.118 -0.70022,0.00458661 -0.625854,0.0171575 0.320819,0.0542283 0.448193,0.0681929 0.703531,0.159984 0.00468898,0.00168504 0.0552283,0.080311 0.050252,0.0800197 -0.339504,-0.0198701 -0.674886,0.190854 -0.596933,0.182748 0.0275827,-0.00287008 0.576705,-0.0335118 0.602724,-0.0300984 0.0195787,0.00256693 0.0495079,-0.0107992 0.0666654,0.00785039 0.0494724,0.0537598 0.143508,0.190736 0.17311,0.257665 0.000185039,0.00042126 -0.128906,-0.00825197 -0.225634,0.0142913 -0.193457,0.0450827 -0.409083,0.135047 -0.263346,0.112449 0.056,-0.00868504 0.391417,-0.0677205 0.599445,0.0345039 0.0275039,0.0135157 0.0892165,0.0687362 0.058811,0.070311 -0.144681,0.00749606 -0.339067,0.0766024 -0.477122,0.283894 0.180815,-0.153413 0.45374,-0.114067 0.634248,-0.116756 0.0282638,-0.00042126 0.0806693,0.0376929 0.0613346,0.0578465 -0.086437,0.0900906 -0.50424,0.422701 -0.321169,0.357449 0.129311,-0.0460906 0.31376,-0.185764 0.509827,-0.203094 0.0196181,-0.00173228 0.0319252,0.0228661 0.0479843,0.0338228l0.164161 0.11202c0.0648661,0.0442598 0.126969,0.0829528 0.187031,0.117685 0.0577087,0.0333661 0.115657,0.0640315 0.173618,0.0930354 0.0524567,0.0262441 0.116268,0.00496457 0.1425,-0.0475 0.0262323,-0.0524646 0.00495669,-0.116256 -0.0475,-0.1425 -0.0507717,-0.0254055 -0.104157,-0.0537835 -0.161949,-0.0872008 -0.0554449,-0.0320551 -0.113075,-0.0679803 -0.173701,-0.109354l-0.140106 -0.0956024c-0.14402,-0.0982756 0.0641772,-0.514622 0.0753268,-0.593634 0.0262598,-0.186091 -0.239799,0.321213 -0.279094,0.437571 -0.00455118,0.0134764 -0.0246417,-0.0162047 -0.0319921,-0.0285157 -0.0043937,-0.0073622 -0.0440669,-0.0592638 -0.0444646,-0.0704094 -0.00866929,-0.242433 0.0597874,-0.257075 0.118705,-0.554642 0.0330748,-0.167067 -0.225882,0.255272 -0.26213,0.362606 -0.00377953,0.0111929 -0.0481693,-0.0335551 -0.0493268,-0.044563 -0.0289528,-0.274677 0.0569409,-0.333512 0.123929,-0.617949 0.0418268,-0.17761 -0.263551,0.339579 -0.28948,0.453587 -0.00144488,0.00635039 -0.00725197,-0.0108268 -0.0108425,-0.0162638 -0.0185472,-0.0280591 -0.0426732,-0.053563 -0.0540945,-0.0851772 -0.00332283,-0.00920472 0.00655118,-0.0186654 0.00787402,-0.0288583 0.0300748,-0.231764 0.130346,-0.533358 0.110831,-0.552874 -0.0108622,-0.0108622 -0.215878,0.261567 -0.217846,0.382768 -0.000141732,0.00865748 -0.0259488,-0.20737 -0.0265118,-0.215705 -0.0106417,-0.156602 0.0825157,-0.302732 0.131677,-0.388803 0.162906,-0.285189 -0.195177,0.098252 -0.248079,0.275898 -0.0115,0.0386142 -0.0539055,-0.180705 -0.0616102,-0.219315z"/>
  <path class="fil1" d="M1.1979 1.81333l4.43086 0c0.0948661,0 0.181035,0.0387362 0.243433,0.101138 0.0624016,0.0623976 0.101138,0.148567 0.101138,0.243433l0 0.237909c0,0.0948583 -0.0387362,0.181031 -0.101134,0.243437 -0.0624055,0.0623976 -0.148571,0.101134 -0.243437,0.101134l-4.43086 0c-0.0948661,0 -0.181031,-0.0387362 -0.243437,-0.101134 -0.0623976,-0.0624055 -0.101134,-0.148579 -0.101134,-0.243437l0 -0.237909c0,-0.0948661 0.0387362,-0.181035 0.101138,-0.243433 0.0623976,-0.0624016 0.148567,-0.101138 0.243433,-0.101138z"/>
  <path class="fil1" d="M1.93195 1.0977c0.0129803,0 0.0281378,0.000452756 0.0453189,0.00133071 0.0526142,-0.0598937 0.124008,-0.110248 0.208173,-0.147039 0.099685,-0.0435787 0.218193,-0.0689803 0.344409,-0.0689803 0.0579094,0 0.114969,0.00553937 0.169957,0.015878 0.0343661,0.00646063 0.067685,0.0148819 0.0996614,0.0250709 0.0720118,-0.0501024 0.164551,-0.0918307 0.271004,-0.122028 0.123693,-0.0350906 0.267591,-0.0552756 0.42037,-0.0552756 0.111551,0 0.218335,0.0107362 0.315921,0.0301496 0.0862795,0.0171654 0.165768,0.041311 0.235476,0.0710236 0.0331024,-0.00988583 0.0672638,-0.0178465 0.102177,-0.0236772 0.0496614,-0.00829134 0.100756,-0.0127047 0.152386,-0.0127047 0.12622,0 0.244728,0.0254016 0.344413,0.0689803 0.0841654,0.0367913 0.155567,0.0871417 0.208177,0.147039 0.0171811,-0.000877953 0.0323346,-0.00132677 0.045315,-0.00132677 0.171685,0 0.32876,0.0467402 0.443913,0.122303 0.128535,0.0843425 0.208047,0.205071 0.208047,0.342177 0,0.0720906 -0.0231929,0.146528 -0.0646732,0.216039l-4.17087 0c-0.0202362,-0.0452402 -0.0311378,-0.0937362 -0.0311378,-0.14448 0,-0.137106 0.0795118,-0.257835 0.208047,-0.342177 0.115154,-0.075563 0.272228,-0.122303 0.443913,-0.122303zm0.155031 0.32628c-0.0157598,0.0247362 -0.00848425,0.0575709 0.016252,0.0733307 0.0247362,0.0157598 0.0575709,0.00848425 0.0733307,-0.016252 0.0359961,-0.0565748 0.0984016,-0.105276 0.177937,-0.140039 0.0798031,-0.0348858 0.17628,-0.0552244 0.280661,-0.0552244 0.0492874,0 0.096437,0.00444882 0.140583,0.012748 0.0459094,0.00862598 0.0889331,0.021315 0.128079,0.0373898l0.0202087 -0.0491654 -0.0202598 0.0493346c0.0202913,0.00833465 0.0427598,0.00323622 0.0575236,-0.0111654 0.0589291,-0.0516811 0.14824,-0.0954528 0.257614,-0.126476 0.109693,-0.0311181 0.23874,-0.0490197 0.377244,-0.0490197 0.0294528,0 0.0533346,-0.0238819 0.0533346,-0.0533346 0,-0.0294528 -0.0238819,-0.0533346 -0.0533346,-0.0533346 -0.148012,0 -0.286961,0.0194252 -0.405992,0.0531929 -0.111835,0.0317205 -0.20676,0.0764252 -0.276169,0.130016 -0.0374252,-0.0134213 -0.0771772,-0.0242244 -0.118665,-0.0320197 -0.051374,-0.00965748 -0.105126,-0.0148346 -0.160165,-0.0148346 -0.118933,0 -0.230098,0.0237165 -0.323157,0.0643976 -0.0986693,0.0431299 -0.177555,0.105854 -0.225024,0.180457z"/>
 </g>
 <rect class="fil2" width="6.82666" height="6.82666"/>
</svg>
