<?xml version="1.0" encoding="iso-8859-1"?>
<!-- Generator: Adobe Illustrator 19.0.0, SVG Export Plug-In . SVG Version: 6.00 Build 0)  -->
<svg xmlns="http://www.w3.org/2000/svg" xmlns:xlink="http://www.w3.org/1999/xlink" version="1.1" id="Capa_1" x="0px" y="0px" viewBox="0 0 512 512" style="enable-background:new 0 0 512 512;" xml:space="preserve">
<rect x="131.59" y="7.5" style="fill:#C0E8F4;" width="248.81" height="123.96"/>
<rect x="360.41" y="7.5" style="fill:#84D0EB;" width="20" height="123.96"/>
<rect x="131.59" y="7.5" style="fill:#7A8391;" width="248.81" height="33.661"/>
<rect x="360.41" y="7.5" style="fill:#67707A;" width="20" height="33.661"/>
<rect x="63.928" y="111.91" style="fill:#8FB8F9;" width="384.14" height="332.28"/>
<rect x="428.07" y="111.91" style="fill:#74A1E2;" width="20" height="332.28"/>
<rect x="399.87" y="191.46" style="fill:#FACB57;" width="48.2" height="24"/>
<path style="fill:#7A8391;" d="M414.842,275.456H97.158c-5.058,0-9.158-4.1-9.158-9.158v-53.685c0-5.058,4.1-9.158,9.158-9.158  h317.685c5.058,0,9.158,4.1,9.158,9.158v53.685C424,271.356,419.9,275.456,414.842,275.456z"/>
<rect x="114" y="203.46" style="fill:#FACB57;" width="25.818" height="246.98"/>
<rect x="139.82" y="203.46" style="fill:#F0AF46;" width="25.818" height="246.98"/>
<rect x="165.64" y="203.46" style="fill:#FACB57;" width="25.818" height="246.98"/>
<rect x="191.46" y="203.46" style="fill:#F0AF46;" width="25.818" height="246.98"/>
<rect x="217.27" y="203.46" style="fill:#FACB57;" width="25.818" height="246.98"/>
<rect x="243.09" y="203.46" style="fill:#F0AF46;" width="25.818" height="246.98"/>
<rect x="268.91" y="203.46" style="fill:#FACB57;" width="25.818" height="246.98"/>
<rect x="294.73" y="203.46" style="fill:#F0AF46;" width="25.818" height="246.98"/>
<rect x="320.55" y="203.46" style="fill:#FACB57;" width="25.818" height="246.98"/>
<rect x="346.36" y="203.46" style="fill:#F0AF46;" width="25.818" height="246.98"/>
<rect x="372.18" y="203.46" style="fill:#FACB57;" width="25.818" height="246.98"/>
<path style="fill:#D8DFE6;" d="M415.038,203.456H96.962c-4.95,0-8.962-4.012-8.962-8.962v-51.032c0-4.95,4.012-8.962,8.962-8.962  h318.076c4.949,0,8.962,4.012,8.962,8.962v51.032C424,199.443,419.988,203.456,415.038,203.456z"/>
<path style="fill:#AAB0B8;" d="M414.842,134.5h-20.029c5.058,0,9.157,3.927,9.157,8.77v51.415c0,4.844-4.1,8.77-9.157,8.77h20.029  c5.057,0,9.158-3.927,9.158-8.77V143.27C424,138.427,419.9,134.5,414.842,134.5z"/>
<rect x="448.07" y="93.46" style="fill:#F2464F;" width="24" height="220"/>
<rect x="472.07" y="115" style="fill:#FACB57;" width="32.428" height="24"/>
<path style="fill:#F2464F;" d="M472,504.5H40c-8.837,0-16-7.163-16-16v-24.305h464V488.5C488,497.337,480.837,504.5,472,504.5z"/>
<path style="fill:#DB3747;" d="M468,464.195V488.5c0,8.836-7.164,16-16,16h20c8.836,0,16-7.164,16-16v-24.305H468z"/>
<path style="fill:#D8DFE6;" d="M500.118,466.195H11.882c-2.42,0-4.382-1.962-4.382-4.382v-15.236c0-2.42,1.962-4.382,4.382-4.382  h488.236c2.42,0,4.382,1.962,4.382,4.382v15.236C504.5,464.234,502.538,466.195,500.118,466.195z"/>
<path style="fill:#AAB0B8;" d="M500.5,442.195h-20c2.209,0,4,2.149,4,4.8v14.4c0,2.651-1.791,4.8-4,4.8h20c2.209,0,4-2.149,4-4.8  v-14.4C504.5,444.345,502.709,442.195,500.5,442.195z"/>
<path d="M440.572,385c0,4.143,3.357,7.5,7.5,7.5s7.5-3.357,7.5-7.5v-64.044h16.5c4.143,0,7.5-3.357,7.5-7.5V146.5H504.5  c4.143,0,7.5-3.357,7.5-7.5v-24c0-4.143-3.357-7.5-7.5-7.5h-24.928V93.456c0-4.143-3.357-7.5-7.5-7.5h-24  c-4.143,0-7.5,3.357-7.5,7.5v10.958H387.91V90.5c0-4.143-3.357-7.5-7.5-7.5s-7.5,3.357-7.5,7.5v13.914H139.09V48.661h233.82V55  c0,4.143,3.357,7.5,7.5,7.5s7.5-3.357,7.5-7.5V7.5c0-4.143-3.357-7.5-7.5-7.5h-0.004H131.594h-0.004c-4.143,0-7.5,3.357-7.5,7.5  v96.914H63.928c-4.143,0-7.5,3.357-7.5,7.5v19.542c0,4.143,3.357,7.5,7.5,7.5s7.5-3.357,7.5-7.5v-12.042h369.145v64.541H431.5  v-40.493c0-9.077-7.385-16.462-16.462-16.462H96.962c-9.077,0-16.462,7.385-16.462,16.462v51.032c0,3.335,1.004,6.438,2.715,9.033  c-1.711,2.615-2.715,5.732-2.715,9.083v53.69c0,9.187,7.474,16.66,16.66,16.66h9.34v151.735H71.43V170c0-4.143-3.357-7.5-7.5-7.5  s-7.5,3.357-7.5,7.5v264.695H11.882C5.33,434.695,0,440.025,0,446.577v15.236c0,6.552,5.33,11.882,11.882,11.882H16.5V488.5  c0,12.958,10.542,23.5,23.5,23.5h432c12.958,0,23.5-10.542,23.5-23.5v-14.805h4.618c6.552,0,11.882-5.33,11.882-11.882v-15.236  c0-6.552-5.33-11.882-11.882-11.882H455.57V420.33c0-4.143-3.357-7.5-7.5-7.5s-7.5,3.357-7.5,7.5v14.365H405.5V282.96h9.34  c9.187,0,16.66-7.474,16.66-16.66v-43.345h9.072v90.501V385z M372.906,15v18.661H139.094V15H372.906z M364.68,434.695h-10.82V210.96  h10.819v223.735H364.68z M328.05,434.695V210.96h10.811v223.735H328.05z M302.23,434.695V210.96h10.819v223.735H302.23z   M276.41,434.695V210.96h10.82v223.735H276.41z M250.59,434.695V210.96h10.82v223.735H250.59z M224.77,434.695V210.96h10.82v223.735  H224.77z M198.95,434.695V210.96h10.819v223.735H198.95z M173.14,434.695V210.96h10.811v223.735H173.14z M147.32,434.695V210.96  h10.819v223.735H147.32z M95.5,143.462c0-0.806,0.656-1.462,1.462-1.462h318.076c0.806,0,1.462,0.656,1.462,1.462v51.032  c0,0.806-0.656,1.462-1.462,1.462H96.962c-0.806,0-1.462-0.656-1.462-1.462V143.462z M97.16,267.96c-0.915,0-1.66-0.745-1.66-1.66  v-53.69c0-0.91,0.745-1.65,1.66-1.65h9.34v57L97.16,267.96L97.16,267.96z M121.5,210.96h10.82v223.735H121.5V210.96z M480.5,488.5  c0,4.687-3.813,8.5-8.5,8.5H40c-4.687,0-8.5-3.813-8.5-8.5v-14.805h449V488.5z M497,458.695H15v-9h48.833  c0.032,0,0.064,0.005,0.097,0.005s0.064-0.004,0.097-0.005h49.877c0.032,0,0.064,0.005,0.097,0.005s0.064-0.004,0.097-0.005h25.627  c0.032,0,0.064,0.005,0.097,0.005s0.064-0.004,0.097-0.005h25.626c0.032,0,0.064,0.005,0.097,0.005s0.064-0.004,0.097-0.005h25.617  c0.032,0,0.064,0.005,0.097,0.005s0.064-0.004,0.097-0.005h25.626c0.032,0,0.064,0.005,0.097,0.005s0.064-0.004,0.097-0.005h25.627  c0.032,0,0.064,0.005,0.097,0.005s0.064-0.004,0.097-0.005h25.627c0.032,0,0.064,0.005,0.097,0.005s0.064-0.004,0.097-0.005h25.627  c0.032,0,0.064,0.005,0.097,0.005s0.064-0.004,0.097-0.005h25.626c0.032,0,0.064,0.005,0.097,0.005s0.064-0.004,0.097-0.005h25.617  c0.032,0,0.064,0.005,0.097,0.005s0.064-0.004,0.097-0.005h25.626c0.032,0,0.064,0.005,0.097,0.005s0.064-0.004,0.097-0.005h25.627  c0.032,0,0.064,0.005,0.097,0.005s0.064-0.004,0.097-0.005h49.877c0.032,0,0.064,0.005,0.097,0.005s0.064-0.004,0.097-0.005H497  V458.695z M379.68,434.695V210.96h10.82v223.735H379.68z M416.5,266.3c0,0.915-0.745,1.66-1.66,1.66h-9.34v-57h9.34  c0.915,0,1.66,0.74,1.66,1.65V266.3z M440.57,207.955h-9.746c-0.463-1.586-1.155-3.074-2.04-4.428  c0.917-1.391,1.621-2.931,2.084-4.572h9.701v9H440.57z M497,122.5v9h-17.428v-9H497z M455.572,100.956h9V115v24v166.956h-9V111.914  V100.956z"/>
<g>
</g>
<g>
</g>
<g>
</g>
<g>
</g>
<g>
</g>
<g>
</g>
<g>
</g>
<g>
</g>
<g>
</g>
<g>
</g>
<g>
</g>
<g>
</g>
<g>
</g>
<g>
</g>
<g>
</g>
</svg>
